HIERARCHY
ROOT root
{
	OFFSET 0.000000 0.000000 0.000000
	CHANNELS 6 Xposition Yposition Zposition Zrotation Yrotation Xrotation
	JOINT lhip
	{
		OFFSET 0.058581 -0.082280 -0.017664
		CHANNELS 3 Zrotation Yrotation Xrotation
		JOINT lknee
		{
			OFFSET 0.043451 -0.386469 0.008037
			CHANNELS 3 Zrotation Yrotation Xrotation
			JOINT lankle
			{
				OFFSET -0.014790 -0.426874 -0.037428
				CHANNELS 3 Zrotation Yrotation Xrotation
				JOINT ltoe
				{
					OFFSET 0.041054 -0.060286 0.122042
					CHANNELS 3 Zrotation Yrotation Xrotation
					End Site
					{
						OFFSET 0.000000 0.000000 0.000000
					}
				}
			}
		}
	}
	JOINT rhip
	{
		OFFSET -0.060310 -0.090513 -0.013543
		CHANNELS 3 Zrotation Yrotation Xrotation
		JOINT rknee
		{
			OFFSET -0.043257 -0.383688 -0.004843
			CHANNELS 3 Zrotation Yrotation Xrotation
			JOINT rankle
			{
				OFFSET 0.019056 -0.420046 -0.034562
				CHANNELS 3 Zrotation Yrotation Xrotation
				JOINT rtoe
				{
					OFFSET -0.034840 -0.062106 0.130323
					CHANNELS 3 Zrotation Yrotation Xrotation
					End Site
					{
						OFFSET 0.000000 0.000000 0.000000
					}
				}
			}
		}
	}
	JOINT lowerback
	{
		OFFSET 0.004439 0.124404 -0.038385
		CHANNELS 3 Zrotation Yrotation Xrotation
		JOINT upperback
		{
			OFFSET 0.004488 0.137956 0.026820
			CHANNELS 3 Zrotation Yrotation Xrotation
			JOINT chest
			{
				OFFSET -0.002265 0.056032 0.002855
				CHANNELS 3 Zrotation Yrotation Xrotation
				JOINT lowerneck
				{
					OFFSET -0.013390 0.211636 -0.033468
					CHANNELS 3 Zrotation Yrotation Xrotation
					JOINT upperneck
					{
						OFFSET 0.010113 0.088937 0.050410
						CHANNELS 3 Zrotation Yrotation Xrotation
						End Site
						{
							OFFSET 0.000000 0.000000 0.000000
						}
					}
				}
				JOINT lclavicle
				{
					OFFSET 0.071702 0.114000 -0.018898
					CHANNELS 3 Zrotation Yrotation Xrotation
					JOINT lshoulder
					{
						OFFSET 0.122921 0.045205 -0.019046
						CHANNELS 3 Zrotation Yrotation Xrotation
						JOINT lelbow
						{
							OFFSET 0.255332 -0.015649 -0.022946
							CHANNELS 3 Zrotation Yrotation Xrotation
							JOINT lwrist
							{
								OFFSET 0.265709 0.012698 -0.007375
								CHANNELS 3 Zrotation Yrotation Xrotation
								End Site
								{
									OFFSET 0.000000 0.000000 0.000000
								}
							}
						}
					}
				}
				JOINT rclavicle
				{
					OFFSET -0.082954 0.112472 -0.023707
					CHANNELS 3 Zrotation Yrotation Xrotation
					JOINT rshoulder
					{
						OFFSET -0.113228 0.046853 -0.008472
						CHANNELS 3 Zrotation Yrotation Xrotation
						JOINT relbow
						{
							OFFSET -0.260127 -0.014369 -0.031269
							CHANNELS 3 Zrotation Yrotation Xrotation
							JOINT rwrist
							{
								OFFSET -0.269108 0.006794 -0.006027
								CHANNELS 3 Zrotation Yrotation Xrotation
								End Site
								{
									OFFSET 0.000000 0.000000 0.000000
								}
							}
						}
					}
				}
			}
		}
	}
}
MOTION
Frames: 11
Frame Time: 0.033333
0.060948 0.214261 1.001227 -145.089551 0.236982 93.161454 7.025851 -6.043680 -16.494593 1.221970 -4.137657 10.676228 -6.238323 -7.164511 -4.183659 0.000000 -0.000000 0.000000 -3.074649 -10.516484 -0.318973 -1.555343 -24.020181 7.688681 4.887720 -0.725605 -8.910535 0.000000 -0.000000 0.000000 0.674373 9.581062 4.834278 -2.897196 3.998205 1.809694 0.865994 7.343517 -7.954654 -0.089464 6.826687 11.412731 1.295443 6.797154 -0.289776 0.360464 -8.036819 -11.303623 -56.206014 -24.021860 12.409900 161.917115 -37.826845 -127.935629 -14.232808 -10.293327 -17.023477 -4.220072 21.921613 -6.196004 41.624386 42.768575 2.891463 -154.067270 59.983889 -122.512611 27.700539 16.501666 -7.995967 
0.055114 0.214717 1.001543 -143.205800 0.027401 93.803153 6.576144 -6.835388 -17.342495 0.996872 -4.793827 10.690914 -6.162545 -7.304298 -4.102208 0.000000 -0.000000 0.000000 -3.239195 -10.829637 -0.425731 -1.678520 -24.797122 7.454299 5.306037 -1.469702 -8.809508 0.000000 -0.000000 0.000000 0.317744 9.892169 5.914067 -3.447090 4.106550 1.209332 0.770668 7.203037 -7.361669 -0.499270 6.241962 10.195258 1.644542 6.378534 -1.499127 0.537071 -8.380180 -12.292342 -55.911652 -25.629548 12.540081 161.438806 -37.167167 -126.639131 -12.762826 -9.962581 -15.614665 -5.277454 21.575911 -7.163899 40.060782 41.588423 1.459325 -150.231920 60.115916 -120.139600 29.273869 18.675324 -11.658239 
0.049027 0.215137 1.002417 -141.727563 -0.072891 94.450096 6.207675 -7.481859 -18.048287 0.827260 -5.661878 10.632829 -6.092099 -7.226776 -4.144153 0.000000 -0.000000 0.000000 -3.283368 -11.303433 -0.746182 -1.981397 -25.184940 7.517581 5.653075 -2.043302 -8.886649 0.000000 -0.000000 0.000000 0.188983 10.199470 6.976646 -3.980077 4.232427 1.029486 0.677479 7.004717 -6.638213 -1.176462 5.976919 8.901116 1.916884 5.873706 -3.163786 1.020280 -8.527387 -13.410345 -55.466990 -26.802609 12.833278 161.233747 -36.900831 -126.081501 -9.346667 -9.403903 -16.039741 -6.381859 21.289661 -8.228599 38.256410 40.973851 0.044039 -147.203419 60.464255 -118.710721 26.394004 19.997517 -16.181319 
0.043107 0.215392 1.003322 -140.964911 -0.113956 95.250926 6.074301 -7.711962 -18.718701 0.576382 -5.646143 10.372210 -6.137512 -7.406913 -3.869985 0.000000 -0.000000 0.000000 -3.297901 -11.596159 -1.515119 -2.319721 -25.103535 7.880261 5.995686 -2.637510 -8.705933 0.000000 -0.000000 0.000000 -0.044813 10.549240 7.812140 -4.359021 4.411376 1.248768 0.513160 7.120629 -6.250519 -1.766561 5.704770 8.110034 2.301147 5.672765 -4.553142 2.004664 -9.110205 -14.385078 -54.725819 -27.599838 12.920452 160.976061 -37.140460 -125.784987 -7.129206 -8.869680 -16.102120 -7.473304 21.642596 -9.055418 35.922152 40.472006 -1.883108 -145.199080 59.577299 -116.930511 26.599211 20.005011 -15.833447 
0.037436 0.214949 1.003671 -140.861575 -0.050607 96.486478 6.009281 -7.529048 -19.636748 0.537565 -5.344775 9.799679 -6.222855 -7.616039 -3.495555 0.000000 -0.000000 0.000000 -3.222503 -11.514388 -3.209551 -2.774525 -24.870732 8.844831 6.176541 -2.995992 -8.761012 0.000000 -0.000000 0.000000 -0.448415 11.177766 7.882188 -4.643042 4.758127 1.726858 0.361465 7.476455 -6.127758 -1.474371 5.705957 8.555498 2.580384 5.081182 -5.741189 3.363824 -10.944935 -14.620573 -53.442190 -28.324620 13.005725 160.207841 -37.538338 -124.907093 -6.004225 -8.389723 -14.962998 -8.439970 22.116894 -9.664215 33.079187 39.669304 -3.898691 -144.804933 58.641576 -116.641678 24.998532 20.226897 -17.074045 
0.032463 0.214755 1.004287 -141.172555 0.147078 97.541739 5.870576 -6.675212 -20.384739 0.389882 -5.851903 9.416977 -6.023575 -7.272275 -3.297800 0.000000 -0.000000 0.000000 -2.984478 -11.717314 -4.857689 -3.222059 -23.776467 9.823788 5.924188 -3.405467 -8.914477 0.000000 -0.000000 0.000000 -0.501043 11.227582 8.693216 -4.992233 4.992359 1.582504 0.330864 7.320293 -5.806566 -2.412614 5.693201 8.433516 2.842399 5.517238 -6.667590 4.303008 -11.355040 -15.342861 -51.942922 -28.148281 12.479265 160.296326 -38.609809 -125.190127 -0.844346 -6.991615 -14.816518 -9.944866 22.864879 -10.378907 31.437440 40.138526 -5.141309 -146.035689 58.323174 -118.720472 21.156914 20.841231 -18.933102 
0.027962 0.214551 1.004873 -141.795403 0.289655 98.436854 5.695686 -6.047963 -20.843613 0.299452 -6.060116 8.887141 -5.636831 -6.724623 -2.954770 0.000000 -0.000000 0.000000 -2.939346 -11.776509 -6.311461 -3.417543 -22.406225 10.617484 5.685623 -3.684033 -9.182309 0.000000 -0.000000 0.000000 -0.574347 11.292578 9.569284 -5.470240 5.026917 1.406555 0.224582 7.372139 -5.747145 -3.206774 5.567147 8.522104 3.312453 6.331636 -7.481724 5.111537 -12.026340 -15.702276 -50.307592 -27.609839 11.897715 159.900331 -39.879540 -126.197080 5.536399 -5.866550 -13.694425 -11.613973 23.874159 -10.879874 31.093065 39.785458 -5.228578 -147.832589 56.571902 -120.952009 16.837584 20.659411 -18.047826 
0.023774 0.214389 1.005258 -142.263052 0.366755 99.152624 5.564489 -5.814982 -21.172518 0.253868 -6.056608 8.438974 -5.304763 -6.290626 -2.779283 0.000000 -0.000000 0.000000 -2.852044 -11.791810 -7.292692 -3.524958 -21.224371 10.847829 5.364236 -4.247093 -9.324848 0.000000 -0.000000 0.000000 -0.728683 11.396956 10.297486 -5.732279 4.821352 1.355450 0.062504 7.298933 -5.732186 -3.492089 5.658677 8.530553 3.681666 6.840744 -7.702896 5.961745 -13.572731 -15.265844 -48.977448 -27.205936 10.507527 158.823837 -40.810963 -125.047369 9.384964 -4.351691 -11.298799 -12.572688 24.748210 -11.125043 31.744643 39.251060 -4.822665 -151.087486 54.433940 -122.149148 12.049387 18.991337 -14.247574 
0.019638 0.214030 1.005532 -142.760019 0.390194 99.691585 5.473824 -6.164755 -21.112567 0.350560 -5.735264 7.612618 -5.001145 -5.786117 -2.426655 0.000000 -0.000000 0.000000 -2.885549 -12.151356 -8.005557 -3.643513 -20.477651 11.001025 5.203251 -4.321903 -9.492919 0.000000 -0.000000 0.000000 -0.962303 11.579847 10.545943 -5.812066 4.311464 1.510433 -0.071781 7.645384 -5.456016 -3.074461 6.267640 8.658301 3.615837 6.533218 -8.006748 5.583837 -14.943751 -14.818396 -48.006230 -27.331590 10.014280 157.899405 -41.646731 -124.898881 14.133613 -4.165108 -9.367462 -11.281157 24.910397 -10.551925 31.647470 38.550068 -4.397420 -154.490533 52.698609 -121.853751 5.752487 17.028177 -3.527442 
0.015942 0.213771 1.005426 -143.197465 0.311137 100.209306 5.351064 -6.455808 -21.339530 0.414786 -5.199505 7.366127 -4.986043 -5.788931 -2.401095 0.000000 -0.000000 0.000000 -3.020841 -12.163396 -8.507638 -3.873232 -20.764436 10.929041 5.461372 -3.965031 -9.495699 0.000000 -0.000000 0.000000 -1.461891 11.599074 10.716011 -5.698041 3.931247 1.440644 -0.200229 7.963692 -5.498949 -2.341898 6.838649 9.193908 3.443757 5.706103 -7.924461 4.566629 -15.188922 -14.098412 -48.054396 -28.596676 9.912428 157.556096 -42.932934 -124.793026 16.295619 -5.405626 -7.858233 -8.297096 24.152054 -9.097105 31.793584 37.877811 -3.255114 -158.141107 51.721920 -124.011462 -3.995819 17.820454 -1.269222 
0.012733 0.213444 1.005059 -143.484033 0.277431 100.613604 5.244036 -6.562639 -21.739194 0.345835 -5.039356 7.547544 -4.914560 -5.782971 -2.495202 0.000000 -0.000000 0.000000 -3.202989 -12.252284 -8.762981 -3.876888 -20.970151 10.712323 5.588263 -3.648126 -9.388015 0.000000 -0.000000 0.000000 -1.816935 11.544632 10.523307 -5.222436 3.584185 1.858368 -0.220307 8.069207 -5.622289 -2.402303 7.202634 9.226253 3.122255 5.017645 -7.536782 3.647020 -15.162301 -13.171463 -48.711500 -29.702934 10.145540 157.290912 -44.405371 -124.810953 16.116280 -8.082738 -10.013842 -6.005569 23.347513 -7.776133 32.737011 37.068427 -2.210866 -161.068684 49.849845 -127.203238 -4.634374 19.646294 -6.851800 
